<?xml version="1.0" encoding="utf-8"?>
<!-- Generated by IcoMoon.io -->
<!DOCTYPE svg PUBLIC "-//W3C//DTD SVG 1.1//EN" "http://www.w3.org/Graphics/SVG/1.1/DTD/svg11.dtd">
<svg version="1.1" xmlns="http://www.w3.org/2000/svg" xmlns:xlink="http://www.w3.org/1999/xlink" width="1024" height="1024" viewBox="0 0 1024 1024"><g id="icomoon-ignore">
</g>
<path fill="#999" d="M864 976h-704c-35.328 0-64-28.672-64-64v-704c0-35.36 28.672-64 64-64h64v32c0 53.024 42.976 96 96 96 52.992 0 96-42.976 96-96v-32h192v32c0 53.024 43.008 96 96 96s96-42.976 96-96v-32h64c35.328 0 64 28.64 64 64v704c0 35.328-28.672 64-64 64zM864 368h-704v544h704v-544zM320 528h-96v-96h96v96zM320 688h-96v-96h96v96zM320 848h-96v-96h96v96zM480 528h-96v-96h96v96zM480 688h-96v-96h96v96zM480 848h-96v-96h96v96zM640 528h-96v-96h96v96zM640 688h-96v-96h96v96zM640 848h-96v-96h96v96zM800 528h-96v-96h96v96zM800 688h-96v-96h96v96zM800 848h-96v-96h96v96zM703.008 240c-34.816 0-63.008-28.224-63.008-63.008v-65.984c0-34.816 28.192-63.008 63.008-63.008s63.008 28.192 63.008 63.008v65.984c0 34.784-28.192 63.008-63.008 63.008zM319.008 240c-34.816 0-63.008-28.224-63.008-63.008v-65.984c0-34.816 28.192-63.008 63.008-63.008s63.008 28.192 63.008 63.008v65.984c0 34.784-28.224 63.008-63.008 63.008z"></path>
</svg>
